
<svg xmlns="http://www.w3.org/2000/svg" viewBox="0 0 841.9 595.3">
  <g fill="#61DAFB">
    <path d="M421.9 296.5c-31.5 0-57.1 25.6-57.1 57.1s25.6 57.1 57.1 57.1 57.1-25.6 57.1-57.1-25.6-57.1-57.1-57.1zm0 93.2c-19.9 0-36.1-16.2-36.1-36.1s16.2-36.1 36.1-36.1 36.1 16.2 36.1 36.1-16.2 36.1-36.1 36.1z"/>
    <path d="M421.9 0C188.3 0 0 188.3 0 421.9s188.3 421.9 421.9 421.9 421.9-188.3 421.9-421.9S655.5 0 421.9 0zm0 802.4c-209.9 0-380.5-170.6-380.5-380.5S212 41.4 421.9 41.4s380.5 170.6 380.5 380.5-170.6 380.5-380.5 380.5z"/>
  </g>
</svg>
